<?xml version="1.0" standalone="no"?>
<!DOCTYPE svg PUBLIC "-//W3C//DTD SVG 20010904//EN"
 "http://www.w3.org/TR/2001/REC-SVG-20010904/DTD/svg10.dtd">
<svg version="1.0" xmlns="http://www.w3.org/2000/svg"
 width="260.000000pt" height="260.000000pt" viewBox="0 0 260.000000 260.000000"
 preserveAspectRatio="xMidYMid meet">
<metadata>
Created by potrace 1.11, written by Peter Selinger 2001-2013
</metadata>
<g transform="translate(0.000000,260.000000) scale(0.100000,-0.100000)"
fill="#000000" stroke="none">
<path d="M2184 2292 c-12 -2 -26 -14 -32 -28 -7 -13 -16 -24 -22 -24 -6 0 -8
-4 -5 -10 3 -5 1 -10 -4 -10 -6 0 -11 -7 -11 -15 0 -18 14 -17 -157 -19 -78
-1 -145 -4 -148 -8 -4 -3 -19 -3 -33 1 -35 9 -208 8 -218 -2 -17 -17 -24 -4
-24 42 0 46 -1 49 -27 49 -16 1 -98 1 -183 1 -85 0 -162 0 -170 1 -97 5 -1074
4 -1090 -2 -12 -4 -19 -12 -16 -16 3 -5 7 -100 11 -213 10 -367 16 -542 20
-649 5 -129 16 -427 20 -575 2 -60 6 -216 10 -345 4 -129 8 -236 10 -238 16
-16 201 -20 310 -7 39 4 81 7 95 7 14 0 81 -1 150 0 143 0 199 0 325 -3 50 -1
115 -1 145 1 30 2 109 2 175 1 66 -1 145 2 175 7 30 6 64 6 75 2 11 -4 61 -5
110 -3 50 3 101 4 115 4 40 -2 229 -2 305 -1 39 0 124 0 190 -1 130 -2 227 5
247 18 10 6 13 99 14 428 1 399 8 898 20 1378 2 119 1 217 -3 218 -66 8 -343
16 -379 11z"/>
</g>
</svg>
